<svg xmlns="http://www.w3.org/2000/svg" width="50" height="32" fill="none" viewBox="0 0 50 32">
  <path fill="#F15209" d="M44.042 0H5.416C2.725 0 .8 2.604 1.593 5.176l1.596 5.187c.643 2.09 2.855 3.173 5.04 3.116 5.248-.135 7.881 3.282 9.008 6.668.678 2.037 2.394 3.766 4.541 3.766h15.754a4 4 0 0 0 3.702-2.485l6.51-15.913C48.821 2.883 46.885 0 44.042 0Z"/>
  <path fill="#FDBD0D" d="M36.387 3.26h-23.33c-2.7 0-4.625 2.622-3.816 5.199l.225.717c.65 2.07 2.872 3.055 5.023 3.331 2.36.303 3.808 1.736 4.64 3.368.973 1.912 2.65 3.69 4.796 3.69h8.996a4 4 0 0 0 3.691-2.459l3.467-8.304c1.1-2.635-.836-5.541-3.692-5.541Z"/>
  <circle cx="7.609" cy="23.913" r="7.609" fill="#FDBD0D"/>
  <circle cx="7.609" cy="23.913" r="5.435" fill="#F15209"/>
</svg>
